<svg xmlns="http://www.w3.org/2000/svg" width="175" height="39" viewBox="0 0 175 39">
  <g id="Group_406" data-name="Group 406" transform="translate(-1436 -3624)">
    <path id="film-solid" d="M0,36.573A4.577,4.577,0,0,1,4.573,32H32.013a4.577,4.577,0,0,1,4.573,4.573V59.439a4.577,4.577,0,0,1-4.573,4.573H4.573A4.577,4.577,0,0,1,0,59.439ZM3.43,56.009V58.3a1.147,1.147,0,0,0,1.143,1.143H6.86A1.147,1.147,0,0,0,8,58.3V56.009A1.147,1.147,0,0,0,6.86,54.866H4.573A1.147,1.147,0,0,0,3.43,56.009Zm26.3-1.143a1.147,1.147,0,0,0-1.143,1.143V58.3a1.147,1.147,0,0,0,1.143,1.143h2.287A1.147,1.147,0,0,0,33.156,58.3V56.009a1.147,1.147,0,0,0-1.143-1.143Zm-26.3-8V49.15a1.147,1.147,0,0,0,1.143,1.143H6.86A1.147,1.147,0,0,0,8,49.15V46.863A1.147,1.147,0,0,0,6.86,45.72H4.573A1.147,1.147,0,0,0,3.43,46.863Zm26.3-1.143a1.147,1.147,0,0,0-1.143,1.143V49.15a1.147,1.147,0,0,0,1.143,1.143h2.287a1.147,1.147,0,0,0,1.143-1.143V46.863a1.147,1.147,0,0,0-1.143-1.143Zm-26.3-8V40a1.147,1.147,0,0,0,1.143,1.143H6.86A1.147,1.147,0,0,0,8,40V37.717A1.147,1.147,0,0,0,6.86,36.573H4.573A1.147,1.147,0,0,0,3.43,37.717Zm26.3-1.143a1.147,1.147,0,0,0-1.143,1.143V40a1.147,1.147,0,0,0,1.143,1.143h2.287A1.147,1.147,0,0,0,33.156,40V37.717a1.147,1.147,0,0,0-1.143-1.143ZM11.433,38.86v4.573A2.284,2.284,0,0,0,13.72,45.72h9.146a2.284,2.284,0,0,0,2.287-2.287V38.86a2.284,2.284,0,0,0-2.287-2.287H13.72A2.284,2.284,0,0,0,11.433,38.86ZM13.72,50.293a2.284,2.284,0,0,0-2.287,2.287v4.573a2.284,2.284,0,0,0,2.287,2.287h9.146a2.284,2.284,0,0,0,2.287-2.287V52.579a2.284,2.284,0,0,0-2.287-2.287Z" transform="translate(1436 3592)" fill="#d22f27"/>
    <text id="Filmcast." transform="translate(1544 3653)" fill="#fff" font-size="28" font-family="Poppins-Bold, Poppins" font-weight="700"><tspan x="-66.164" y="0">Filmcast</tspan><tspan y="0" fill="#d22f27">.</tspan></text>
  </g>
</svg>
